<svg width="21" height="21" viewBox="0 0 21 21" fill="none" xmlns="http://www.w3.org/2000/svg">
<path d="M3.11626 16.3638H13.0803C15.1446 16.3638 16.1867 15.3224 16.1867 13.2594V3.12495C16.1867 1.062 15.1446 0.0205078 13.0803 0.0205078H3.11626C1.03214 0.0205078 0 1.062 0 3.12495V13.2594C0 15.3224 1.03214 16.3638 3.11626 16.3638ZM3.1361 14.7515C2.14367 14.7515 1.59783 14.2108 1.59783 13.1693V3.21508C1.59783 2.17359 2.14367 1.63282 3.1361 1.63282H13.0506C14.0331 1.63282 14.5889 2.17359 14.5889 3.21508V13.1693C14.5889 14.2108 14.0331 14.7515 13.0506 14.7515H3.1361Z" fill="black" fill-opacity="0.85"/>
<path d="M7.92876 20.9996H17.8928C19.9571 20.9996 20.9992 19.9581 20.9992 17.8952V7.76069C20.9992 5.69774 19.9571 4.65625 17.8928 4.65625H7.92876C5.84464 4.65625 4.8125 5.68772 4.8125 7.76069V17.8952C4.8125 19.9581 5.84464 20.9996 7.92876 20.9996Z" fill="#F4D8E8"/>
<path d="M7.92876 20.9996H17.8928C19.9571 20.9996 20.9992 19.9581 20.9992 17.8952V7.76069C20.9992 5.69774 19.9571 4.65625 17.8928 4.65625H7.92876C5.84464 4.65625 4.8125 5.68772 4.8125 7.76069V17.8952C4.8125 19.9581 5.84464 20.9996 7.92876 20.9996ZM7.94861 19.3873C6.96609 19.3873 6.41033 18.8465 6.41033 17.805V7.85081C6.41033 6.80933 6.96609 6.26856 7.94861 6.26856H17.8631C18.8456 6.26856 19.4014 6.80933 19.4014 7.85081V17.805C19.4014 18.8465 18.8456 19.3873 17.8631 19.3873H7.94861Z" fill="black" fill-opacity="0.85"/>
<path d="M9.03039 10.3351C9.79453 10.3451 10.4297 9.70416 10.4297 8.91301C10.4297 8.12187 9.79453 7.50098 9.03039 7.50098C8.25625 7.50098 7.62109 8.12187 7.62109 8.91301C7.62109 9.70416 8.25625 10.325 9.03039 10.3351ZM16.8011 10.3351C17.5653 10.3451 18.2005 9.70416 18.2005 8.91301C18.2005 8.12187 17.5653 7.50098 16.8011 7.50098C16.0271 7.50098 15.382 8.12187 15.382 8.91301C15.382 9.70416 16.0271 10.325 16.8011 10.3351ZM12.9108 14.2606C13.6749 14.2606 14.3101 13.6197 14.3101 12.8286C14.3101 12.0575 13.6749 11.4266 12.9108 11.4266C12.1367 11.4266 11.5115 12.0575 11.5115 12.8286C11.5115 13.6197 12.1367 14.2606 12.9108 14.2606ZM9.03039 18.1862C9.79453 18.1862 10.4297 17.5453 10.4297 16.7642C10.4297 15.9831 9.79453 15.3522 9.03039 15.3522C8.25625 15.3522 7.63102 15.9831 7.63102 16.7642C7.63102 17.5453 8.25625 18.1862 9.03039 18.1862ZM16.8011 18.1862C17.5653 18.1862 18.2005 17.5453 18.2005 16.7642C18.2005 15.9831 17.5653 15.3522 16.8011 15.3522C16.0271 15.3522 15.3919 15.9831 15.3919 16.7642C15.3919 17.5453 16.0271 18.1862 16.8011 18.1862Z" fill="black" fill-opacity="0.85"/>
</svg>
