<svg width="22" height="22" viewBox="0 0 22 22" fill="none" xmlns="http://www.w3.org/2000/svg">
<path d="M21.2804 10.9409C21.2804 10.2018 21.2214 9.45861 21.0955 8.73145H11V12.9187H16.7812C16.5413 14.2691 15.7705 15.4638 14.6418 16.2229V18.9398H18.0909C20.1163 17.0459 21.2804 14.2491 21.2804 10.9409Z" fill="#C7C9CC"/>
<path d="M11.0426 21.2084C13.8136 21.2084 16.1504 20.3386 17.853 18.8373L14.5422 16.3831C13.621 16.9822 12.4319 17.3215 11.0464 17.3215C8.36598 17.3215 6.09331 15.5928 5.27787 13.2686H1.86133V15.7985C3.60546 19.1151 7.15792 21.2084 11.0426 21.2084Z" fill="#34A853"/>
<path d="M5.28781 12.9343C4.85138 11.6794 4.85138 10.3205 5.28781 9.06556V6.46289H1.82704C0.349321 9.31803 0.349321 12.6818 1.82704 15.537L5.28781 12.9343Z" fill="#FBBC04"/>
<path d="M11.0059 4.67698C12.4648 4.65533 13.8748 5.18197 14.9314 6.14866L17.853 3.34597C16.0031 1.6795 13.5477 0.763309 11.0059 0.792165C7.13674 0.792165 3.59849 2.88426 1.86133 6.20276L5.26046 8.73132C6.06888 6.40476 8.33622 4.67698 11.0059 4.67698Z" fill="#EA4335"/>
</svg>
