<svg width="25" height="25" viewBox="0 0 25 25" fill="none" xmlns="http://www.w3.org/2000/svg">
<path d="M6.5 6.69189V7.69189H2.5V6.69189C2.5 6.16146 2.71071 5.65275 3.08579 5.27768C3.46086 4.90261 3.96957 4.69189 4.5 4.69189C5.03043 4.69189 5.53914 4.90261 5.91421 5.27768C6.28929 5.65275 6.5 6.16146 6.5 6.69189ZM6.5 18.1919V18.6919C6.5 19.2223 6.28929 19.731 5.91421 20.1061C5.53914 20.4812 5.03043 20.6919 4.5 20.6919C3.96957 20.6919 3.46086 20.4812 3.08579 20.1061C2.71071 19.731 2.5 19.2223 2.5 18.6919V18.1919H6.5Z" stroke="#A2A2A2" stroke-linecap="round" stroke-linejoin="round"/>
<path d="M19.5 15.1919V18.6919C19.5 19.2223 19.2893 19.731 18.9142 20.1061C18.5391 20.4812 18.0304 20.6919 17.5 20.6919H4.5C5.03043 20.6919 5.53914 20.4812 5.91421 20.1061C6.28929 19.731 6.5 19.2223 6.5 18.6919V6.69189C6.5 6.16146 6.28929 5.65275 5.91421 5.27768C5.53914 4.90261 5.03043 4.69189 4.5 4.69189H17.5C18.0304 4.69189 18.5391 4.90261 18.9142 5.27768C19.2893 5.65275 19.5 6.16146 19.5 6.69189V13.1919" stroke="#A2A2A2" stroke-linecap="round" stroke-linejoin="round"/>
<path d="M9 18.6919L10 16.1919L10.5 18.1919L11.5 17.6919L12 18.6919L13 18.1919H15.5" stroke="#A2A2A2" stroke-linecap="round" stroke-linejoin="round"/>
<path d="M17.5 9.69189H8.5" stroke="#A2A2A2" stroke-linecap="round" stroke-linejoin="round"/>
<path d="M8.5 7.69189H17.5" stroke="#A2A2A2" stroke-linecap="round" stroke-linejoin="round"/>
<path d="M8.5 11.6919H14" stroke="#A2A2A2" stroke-linecap="round" stroke-linejoin="round"/>
<path d="M8.5 13.6919H14" stroke="#A2A2A2" stroke-linecap="round" stroke-linejoin="round"/>
<path d="M22.145 12.3368C22.1919 12.3833 22.2291 12.4386 22.2544 12.4995C22.2798 12.5605 22.2929 12.6258 22.2929 12.6918C22.2929 12.7578 22.2798 12.8232 22.2544 12.8841C22.2291 12.945 22.1919 13.0003 22.145 13.0468L18.06 17.1318C17.7238 17.468 17.3247 17.7346 16.8854 17.9164C16.4462 18.0983 15.9754 18.1919 15.5 18.1918C15.4999 17.7164 15.5935 17.2456 15.7754 16.8064C15.9573 16.3671 16.2239 15.968 16.56 15.6318L20.645 11.5468C20.6915 11.5 20.7468 11.4628 20.8077 11.4374C20.8686 11.412 20.934 11.3989 21 11.3989C21.066 11.3989 21.1314 11.412 21.1923 11.4374C21.2532 11.4628 21.3085 11.5 21.355 11.5468L22.145 12.3368Z" fill="#A2A2A2"/>
</svg>
