<svg width="14" height="16" viewBox="0 0 14 16" fill="none" xmlns="http://www.w3.org/2000/svg">
<path d="M7.00065 12.666C7.1325 12.666 7.2614 12.6269 7.37103 12.5537C7.48066 12.4804 7.56611 12.3763 7.61657 12.2545C7.66703 12.1327 7.68023 11.9986 7.65451 11.8693C7.62878 11.74 7.56529 11.6212 7.47205 11.5279C7.37882 11.4347 7.26003 11.3712 7.13071 11.3455C7.00139 11.3198 6.86735 11.333 6.74553 11.3834C6.62371 11.4339 6.51959 11.5193 6.44634 11.629C6.37308 11.7386 6.33398 11.8675 6.33398 11.9993C6.33398 12.1762 6.40422 12.3457 6.52925 12.4708C6.65427 12.5958 6.82384 12.666 7.00065 12.666ZM10.334 12.666C10.4658 12.666 10.5947 12.6269 10.7044 12.5537C10.814 12.4804 10.8994 12.3763 10.9499 12.2545C11.0004 12.1327 11.0136 11.9986 10.9878 11.8693C10.9621 11.74 10.8986 11.6212 10.8054 11.5279C10.7122 11.4347 10.5934 11.3712 10.464 11.3455C10.3347 11.3198 10.2007 11.333 10.0789 11.3834C9.95704 11.4339 9.85292 11.5193 9.77967 11.629C9.70642 11.7386 9.66732 11.8675 9.66732 11.9993C9.66732 12.1762 9.73755 12.3457 9.86258 12.4708C9.9876 12.5958 10.1572 12.666 10.334 12.666ZM10.334 9.99935C10.4658 9.99935 10.5947 9.96025 10.7044 9.887C10.814 9.81374 10.8994 9.70962 10.9499 9.5878C11.0004 9.46599 11.0136 9.33194 10.9878 9.20262C10.9621 9.0733 10.8986 8.95451 10.8054 8.86128C10.7122 8.76804 10.5934 8.70455 10.464 8.67883C10.3347 8.6531 10.2007 8.6663 10.0789 8.71676C9.95704 8.76722 9.85292 8.85267 9.77967 8.9623C9.70642 9.07193 9.66732 9.20083 9.66732 9.33268C9.66732 9.50949 9.73755 9.67906 9.86258 9.80409C9.9876 9.92911 10.1572 9.99935 10.334 9.99935ZM7.00065 9.99935C7.1325 9.99935 7.2614 9.96025 7.37103 9.887C7.48066 9.81374 7.56611 9.70962 7.61657 9.5878C7.66703 9.46599 7.68023 9.33194 7.65451 9.20262C7.62878 9.0733 7.56529 8.95451 7.47205 8.86128C7.37882 8.76804 7.26003 8.70455 7.13071 8.67883C7.00139 8.6531 6.86735 8.6663 6.74553 8.71676C6.62371 8.76722 6.51959 8.85267 6.44634 8.9623C6.37308 9.07193 6.33398 9.20083 6.33398 9.33268C6.33398 9.50949 6.40422 9.67906 6.52925 9.80409C6.65427 9.92911 6.82384 9.99935 7.00065 9.99935ZM11.6673 1.99935H11.0007V1.33268C11.0007 1.15587 10.9304 0.986302 10.8054 0.861278C10.6804 0.736253 10.5108 0.666016 10.334 0.666016C10.1572 0.666016 9.9876 0.736253 9.86258 0.861278C9.73755 0.986302 9.66732 1.15587 9.66732 1.33268V1.99935H4.33398V1.33268C4.33398 1.15587 4.26375 0.986302 4.13872 0.861278C4.0137 0.736253 3.84413 0.666016 3.66732 0.666016C3.49051 0.666016 3.32094 0.736253 3.19591 0.861278C3.07089 0.986302 3.00065 1.15587 3.00065 1.33268V1.99935H2.33398C1.80355 1.99935 1.29484 2.21006 0.919771 2.58514C0.544698 2.96021 0.333984 3.46892 0.333984 3.99935V13.3327C0.333984 13.8631 0.544698 14.3718 0.919771 14.7469C1.29484 15.122 1.80355 15.3327 2.33398 15.3327H11.6673C12.1978 15.3327 12.7065 15.122 13.0815 14.7469C13.4566 14.3718 13.6673 13.8631 13.6673 13.3327V3.99935C13.6673 3.46892 13.4566 2.96021 13.0815 2.58514C12.7065 2.21006 12.1978 1.99935 11.6673 1.99935ZM12.334 13.3327C12.334 13.5095 12.2637 13.6791 12.1387 13.8041C12.0137 13.9291 11.8441 13.9993 11.6673 13.9993H2.33398C2.15717 13.9993 1.9876 13.9291 1.86258 13.8041C1.73756 13.6791 1.66732 13.5095 1.66732 13.3327V7.33268H12.334V13.3327ZM12.334 5.99935H1.66732V3.99935C1.66732 3.82254 1.73756 3.65297 1.86258 3.52794C1.9876 3.40292 2.15717 3.33268 2.33398 3.33268H3.00065V3.99935C3.00065 4.17616 3.07089 4.34573 3.19591 4.47075C3.32094 4.59578 3.49051 4.66602 3.66732 4.66602C3.84413 4.66602 4.0137 4.59578 4.13872 4.47075C4.26375 4.34573 4.33398 4.17616 4.33398 3.99935V3.33268H9.66732V3.99935C9.66732 4.17616 9.73755 4.34573 9.86258 4.47075C9.9876 4.59578 10.1572 4.66602 10.334 4.66602C10.5108 4.66602 10.6804 4.59578 10.8054 4.47075C10.9304 4.34573 11.0007 4.17616 11.0007 3.99935V3.33268H11.6673C11.8441 3.33268 12.0137 3.40292 12.1387 3.52794C12.2637 3.65297 12.334 3.82254 12.334 3.99935V5.99935ZM3.66732 9.99935C3.79917 9.99935 3.92806 9.96025 4.0377 9.887C4.14733 9.81374 4.23278 9.70962 4.28324 9.5878C4.3337 9.46599 4.3469 9.33194 4.32117 9.20262C4.29545 9.0733 4.23196 8.95451 4.13872 8.86128C4.04549 8.76804 3.9267 8.70455 3.79738 8.67883C3.66806 8.6531 3.53401 8.6663 3.4122 8.71676C3.29038 8.76722 3.18626 8.85267 3.113 8.9623C3.03975 9.07193 3.00065 9.20083 3.00065 9.33268C3.00065 9.50949 3.07089 9.67906 3.19591 9.80409C3.32094 9.92911 3.49051 9.99935 3.66732 9.99935ZM3.66732 12.666C3.79917 12.666 3.92806 12.6269 4.0377 12.5537C4.14733 12.4804 4.23278 12.3763 4.28324 12.2545C4.3337 12.1327 4.3469 11.9986 4.32117 11.8693C4.29545 11.74 4.23196 11.6212 4.13872 11.5279C4.04549 11.4347 3.9267 11.3712 3.79738 11.3455C3.66806 11.3198 3.53401 11.333 3.4122 11.3834C3.29038 11.4339 3.18626 11.5193 3.113 11.629C3.03975 11.7386 3.00065 11.8675 3.00065 11.9993C3.00065 12.1762 3.07089 12.3457 3.19591 12.4708C3.32094 12.5958 3.49051 12.666 3.66732 12.666Z" fill="white"/>
</svg>
