<svg width="25" height="25" viewBox="0 0 25 25" fill="none" xmlns="http://www.w3.org/2000/svg">
<path d="M21.33 8.70191L14.78 3.46191C13.5 2.44191 11.5 2.43191 10.23 3.45191L3.67996 8.70191C2.73996 9.45191 2.16996 10.9519 2.36996 12.1319L3.62996 19.6719C3.91996 21.3619 5.48996 22.6919 7.19996 22.6919H17.8C19.49 22.6919 21.09 21.3319 21.38 19.6619L22.64 12.1219C22.82 10.9519 22.25 9.45191 21.33 8.70191ZM13.25 18.6919C13.25 19.1019 12.91 19.4419 12.5 19.4419C12.09 19.4419 11.75 19.1019 11.75 18.6919V15.6919C11.75 15.2819 12.09 14.9419 12.5 14.9419C12.91 14.9419 13.25 15.2819 13.25 15.6919V18.6919Z" fill="#F96A70"/>
</svg>
