<svg width="25" height="25" viewBox="0 0 25 25" fill="none" xmlns="http://www.w3.org/2000/svg">
<path d="M10.5427 3.84206L10.5431 3.84175C11.6273 2.97093 13.3675 2.97603 14.468 3.85266C14.4681 3.85275 14.4682 3.85285 14.4684 3.85294L21.014 9.08945C21.0146 9.08992 21.0152 9.09038 21.0157 9.09084C21.393 9.39901 21.7196 9.88132 21.9304 10.4329C22.141 10.9841 22.2196 11.5618 22.1462 12.0429L20.8873 19.5764C20.8872 19.5769 20.8872 19.5773 20.8871 19.5778C20.6374 21.0107 19.2432 22.1919 17.8 22.1919H7.19996C5.73549 22.1919 4.3725 21.0395 4.12294 19.5884C4.12288 19.588 4.12282 19.5877 4.12276 19.5874L2.86313 12.0495L2.86293 12.0484C2.78079 11.5637 2.85452 10.9849 3.06465 10.4338C3.27476 9.88283 3.60548 9.40099 3.9918 9.09275L3.99267 9.09206L10.5427 3.84206ZM12.5 19.9419C13.1861 19.9419 13.75 19.3781 13.75 18.6919V15.6919C13.75 15.0058 13.1861 14.4419 12.5 14.4419C11.8138 14.4419 11.25 15.0058 11.25 15.6919V18.6919C11.25 19.3781 11.8138 19.9419 12.5 19.9419Z" stroke="#A2A2A2"/>
</svg>
