<svg width="18" height="11" viewBox="0 0 18 11" fill="none" xmlns="http://www.w3.org/2000/svg">
<path d="M6.832 10.192C6.66133 10.192 6.528 10.176 6.432 10.144C6.13333 10.0693 5.92533 9.904 5.808 9.648C5.70133 9.38133 5.648 9.088 5.648 8.768C5.648 8.46933 5.67467 8.176 5.728 7.888C5.792 7.6 5.84533 7.376 5.888 7.216C5.48267 8.12267 4.98133 8.82667 4.384 9.328C3.79733 9.82933 3.17333 10.08 2.512 10.08C1.89333 10.08 1.44 9.92 1.152 9.6C0.864 9.26933 0.72 8.832 0.72 8.288C0.72 7.86133 0.789333 7.41867 0.928 6.96C1.088 6.384 1.30667 5.78667 1.584 5.168C1.86133 4.54933 2.19733 3.952 2.592 3.376C2.98667 2.8 3.44 2.27733 3.952 1.808C4.47467 1.33867 5.056 0.970666 5.696 0.704C6.336 0.426666 7.04533 0.287999 7.824 0.287999C8.29333 0.287999 8.66133 0.362666 8.928 0.511999C9.20533 0.661332 9.39733 0.874666 9.504 1.152C9.54667 1.248 9.568 1.35467 9.568 1.472C9.568 1.632 9.52533 1.75467 9.44 1.84C9.36533 1.91467 9.29067 1.952 9.216 1.952C9.16267 1.952 9.12533 1.92 9.104 1.856C9.08267 1.70667 8.99733 1.58933 8.848 1.504C8.70933 1.41867 8.544 1.36 8.352 1.328C8.16 1.28533 7.97867 1.264 7.808 1.264C7.36 1.264 6.91733 1.41867 6.48 1.728C6.05333 2.02667 5.65333 2.40533 5.28 2.864C4.90667 3.312 4.57067 3.776 4.272 4.256C3.984 4.736 3.74933 5.152 3.568 5.504C3.33333 5.99467 3.136 6.512 2.976 7.056C2.816 7.58933 2.736 8.05333 2.736 8.448C2.736 8.71467 2.77867 8.928 2.864 9.088C2.96 9.23733 3.10933 9.312 3.312 9.312C3.65333 9.30133 3.984 9.10933 4.304 8.736C4.63467 8.36267 4.96533 7.86667 5.296 7.248C5.63733 6.62933 5.984 5.94133 6.336 5.184C6.688 4.42667 7.05067 3.65867 7.424 2.88C7.552 2.90133 7.72267 2.93333 7.936 2.976C8.14933 3.008 8.36267 3.056 8.576 3.12C8.8 3.184 8.98133 3.264 9.12 3.36C9.26933 3.44533 9.344 3.55733 9.344 3.696C9.344 3.77067 9.32267 3.84533 9.28 3.92C8.85333 4.48533 8.49067 5.10933 8.192 5.792C7.904 6.464 7.68533 7.12 7.536 7.76C7.38667 8.38933 7.312 8.93333 7.312 9.392C7.312 9.552 7.344 9.66933 7.408 9.744C7.48267 9.808 7.536 9.85067 7.568 9.872C7.568 9.98933 7.488 10.0693 7.328 10.112C7.168 10.1653 7.00267 10.192 6.832 10.192ZM11.8839 10.384C10.8599 10.384 10.0385 10.1227 9.41988 9.6C8.80121 9.07733 8.49188 8.29867 8.49188 7.264C8.49188 6.77333 8.58788 6.32 8.77988 5.904C8.98254 5.47733 9.32921 5.22133 9.81988 5.136C9.76654 5.296 9.73988 5.47733 9.73988 5.68C9.73988 6.01067 9.78254 6.384 9.86788 6.8C9.96388 7.20533 10.0599 7.55733 10.1559 7.856C10.3052 8.28267 10.5079 8.65067 10.7639 8.96C11.0305 9.25867 11.3132 9.49333 11.6119 9.664C11.9212 9.824 12.1985 9.904 12.4439 9.904C12.6785 9.904 12.8652 9.83467 13.0039 9.696C13.1532 9.54667 13.2279 9.30667 13.2279 8.976C13.2279 8.56 13.1159 8.15467 12.8919 7.76C12.6679 7.35467 12.4012 6.94933 12.0919 6.544C11.7825 6.13867 11.4892 5.73333 11.2119 5.328C10.9985 4.99733 10.8172 4.66133 10.6679 4.32C10.5185 3.968 10.4439 3.61067 10.4439 3.248C10.4439 2.672 10.5719 2.18667 10.8279 1.792C11.0839 1.38667 11.4252 1.08267 11.8519 0.879999C12.2892 0.666666 12.7745 0.559999 13.3079 0.559999C13.5532 0.559999 13.8252 0.576 14.1239 0.608C14.4225 0.639999 14.7052 0.709333 14.9719 0.816L15.2119 0.912C15.4252 0.602667 15.6652 0.384 15.9319 0.256C16.1985 0.127999 16.4332 0.0639992 16.6359 0.0639992C16.7959 0.0639992 16.9239 0.0959994 17.0199 0.16C17.1265 0.213333 17.1799 0.288 17.1799 0.384C17.1799 0.48 17.1265 0.576 17.0199 0.672C16.6039 1.06667 16.2785 1.44 16.0439 1.792C15.8092 2.13333 15.5852 2.528 15.3719 2.976C15.1692 3.41333 15.0519 3.856 15.0199 4.304C14.9559 4.32533 14.9132 4.336 14.8919 4.336C14.7745 4.336 14.6892 4.256 14.6359 4.096C14.5825 3.92533 14.5559 3.712 14.5559 3.456C14.5559 3.15733 14.5879 2.832 14.6519 2.48C14.7159 2.11733 14.8012 1.79733 14.9079 1.52C14.8439 1.456 14.7585 1.40267 14.6519 1.36C14.5452 1.30667 14.4225 1.28 14.2839 1.28C14.0279 1.28 13.7932 1.38133 13.5799 1.584C13.3665 1.78667 13.1905 2.03733 13.0519 2.336C12.9239 2.624 12.8599 2.90667 12.8599 3.184C12.8599 3.54667 12.9399 3.90933 13.0999 4.272C13.2705 4.63467 13.4732 4.992 13.7079 5.344C13.9532 5.696 14.1825 6.048 14.3959 6.4C14.5879 6.73067 14.7265 7.04533 14.8119 7.344C14.9079 7.632 14.9559 7.904 14.9559 8.16C14.9559 8.84267 14.6732 9.38667 14.1079 9.792C13.5532 10.1867 12.8119 10.384 11.8839 10.384Z" fill="white"/>
</svg>
