<svg width="25" height="25" viewBox="0 0 25 25" fill="none" xmlns="http://www.w3.org/2000/svg">
<path d="M12.6596 11.5619C12.5596 11.5519 12.4396 11.5519 12.3296 11.5619C9.94957 11.4819 8.05957 9.53189 8.05957 7.13189C8.05957 4.68189 10.0396 2.69189 12.4996 2.69189C14.9496 2.69189 16.9396 4.68189 16.9396 7.13189C16.9296 9.53189 15.0396 11.4819 12.6596 11.5619Z" stroke="#A2A2A2" stroke-width="1.5" stroke-linecap="round" stroke-linejoin="round"/>
<path d="M7.65973 15.2519C5.23973 16.8719 5.23973 19.5119 7.65973 21.1219C10.4097 22.9619 14.9197 22.9619 17.6697 21.1219C20.0897 19.5019 20.0897 16.8619 17.6697 15.2519C14.9297 13.4219 10.4197 13.4219 7.65973 15.2519Z" stroke="#A2A2A2" stroke-width="1.5" stroke-linecap="round" stroke-linejoin="round"/>
</svg>
