<svg width="25" height="25" viewBox="0 0 25 25" fill="none" xmlns="http://www.w3.org/2000/svg">
<path d="M12.6596 11.5624C12.5596 11.5524 12.4396 11.5524 12.3296 11.5624C9.94957 11.4824 8.05957 9.53238 8.05957 7.13238C8.05957 4.68238 10.0396 2.69238 12.4996 2.69238C14.9496 2.69238 16.9396 4.68238 16.9396 7.13238C16.9296 9.53238 15.0396 11.4824 12.6596 11.5624Z" fill="#F96A70"/>
<path d="M7.65973 15.2524C5.23973 16.8724 5.23973 19.5124 7.65973 21.1224C10.4097 22.9624 14.9197 22.9624 17.6697 21.1224C20.0897 19.5024 20.0897 16.8624 17.6697 15.2524C14.9297 13.4224 10.4197 13.4224 7.65973 15.2524Z" fill="#F96A70"/>
</svg>
