<svg width="14" height="14" viewBox="0 0 14 14" fill="none" xmlns="http://www.w3.org/2000/svg">
<path d="M8.02146 0.770678C8.97611 -0.183977 10.5239 -0.183974 11.4786 0.770678C12.4332 1.72533 12.4332 3.27313 11.4786 4.22779L11.2071 4.49926L11.2929 4.58506C12.0739 5.3661 12.0739 6.63243 11.2929 7.41348L9.8536 8.85282C9.6583 9.04807 9.3417 9.04807 9.1464 8.85282C8.95118 8.65756 8.95118 8.34098 9.1464 8.14572L10.5858 6.70638C10.9763 6.31585 10.9763 5.68269 10.5858 5.29216L10.5 5.20636L4.85356 10.8528C4.78948 10.9169 4.70919 10.9624 4.62128 10.9843L0.621279 11.9843C0.444239 12.0286 0.257139 11.9729 0.133149 11.839C0.00915876 11.7051 -0.0320412 11.5143 0.0256688 11.3412L1.27567 7.59112C1.30022 7.51748 1.34157 7.45057 1.39646 7.39568L8.02146 0.770678ZM10.7715 1.47779C10.2073 0.913658 9.2927 0.913658 8.72857 1.47779L2.18703 8.01933L1.26238 10.7933L4.24439 10.0478L10.7715 3.52068C11.3356 2.95655 11.3356 2.04192 10.7715 1.47779ZM3.96666 13.9992C2.73162 13.9992 1.75917 13.4327 1.11173 12.8925L2.39642 12.5713C2.84174 12.8209 3.36919 12.9992 3.96666 12.9992C4.37205 12.9992 4.79005 12.8352 5.23585 12.5423C5.6826 12.2487 6.11407 11.8553 6.5497 11.4469L6.66313 11.3404C7.04752 10.9791 7.4472 10.6034 7.82928 10.3436C8.23733 10.0661 8.7781 9.81407 9.3462 10.0326C9.7215 10.177 9.9652 10.4435 10.1371 10.7694C10.2983 11.0747 10.4093 11.4575 10.5173 11.8736C10.5667 12.0638 10.6504 12.2476 10.7463 12.3719C10.793 12.4325 10.8333 12.4668 10.8614 12.4841C10.8861 12.4993 10.8971 12.4993 10.8999 12.4993C11.0218 12.4993 11.231 12.4168 11.5299 12.2134C11.7153 12.0872 11.8736 11.9609 12.0321 11.8345C12.1304 11.7561 12.2288 11.6775 12.3338 11.599C12.6127 11.3902 12.8544 11.2502 13.0314 11.1607C13.1198 11.1159 13.1922 11.0837 13.245 11.0619C13.2714 11.051 13.2929 11.0427 13.3091 11.0366L13.3294 11.0293L13.3365 11.0268L13.3392 11.0259L13.3404 11.0255C13.3404 11.0255 13.3414 11.0251 13.5 11.4993L13.3414 11.0251C13.6033 10.9375 13.8866 11.0788 13.9742 11.3407C14.0614 11.6015 13.9217 11.8834 13.662 11.9723L13.6581 11.9738C13.6527 11.9758 13.6422 11.9798 13.627 11.9861C13.5966 11.9986 13.5475 12.0202 13.4828 12.053C13.3534 12.1184 13.1617 12.2284 12.9329 12.3996C12.8743 12.4434 12.7977 12.5042 12.7103 12.5735C12.529 12.7174 12.3012 12.8981 12.0925 13.0401C11.7816 13.2517 11.351 13.4993 10.9 13.4993C10.4644 13.4993 10.1488 13.2346 9.9545 12.9827C9.7562 12.7257 9.6232 12.4095 9.5494 12.1249C9.4397 11.7024 9.3528 11.4257 9.2527 11.236C9.1634 11.0668 9.0827 11.0027 8.98715 10.9659C8.90523 10.9344 8.74183 10.9324 8.39155 11.1705C8.07852 11.3834 7.73735 11.7036 7.33353 12.0827L7.23363 12.1765C6.8026 12.5806 6.31323 13.0309 5.78497 13.378C5.25577 13.7257 4.64461 13.9992 3.96666 13.9992Z" fill="white"/>
</svg>
