<svg width="25" height="25" viewBox="0 0 25 25" fill="none" xmlns="http://www.w3.org/2000/svg">
<path fill-rule="evenodd" clip-rule="evenodd" d="M23.5 4.75C23.5 3.508 22.492 2.5 21.25 2.5H4.75C3.508 2.5 2.5 3.508 2.5 4.75V21.25C2.5 22.492 3.508 23.5 4.75 23.5H21.25C22.492 23.5 23.5 22.492 23.5 21.25V4.75Z" fill="#F96A70"/>
<path fill-rule="evenodd" clip-rule="evenodd" d="M3.25 8.5H22.75C23.164 8.5 23.5 8.164 23.5 7.75C23.5 7.336 23.164 7 22.75 7H3.25C2.836 7 2.5 7.336 2.5 7.75C2.5 8.164 2.836 8.5 3.25 8.5Z" fill="white"/>
<path fill-rule="evenodd" clip-rule="evenodd" d="M12.25 7.75V22.75C12.25 23.164 12.586 23.5 13 23.5C13.414 23.5 13.75 23.164 13.75 22.75V7.75C13.75 7.336 13.414 7 13 7C12.586 7 12.25 7.336 12.25 7.75Z" fill="white"/>
<path fill-rule="evenodd" clip-rule="evenodd" d="M3.25 16H13C13.414 16 13.75 15.664 13.75 15.25C13.75 14.836 13.414 14.5 13 14.5H3.25C2.836 14.5 2.5 14.836 2.5 15.25C2.5 15.664 2.836 16 3.25 16Z" fill="white"/>
<path d="M20.5 6.25C20.9142 6.25 21.25 5.91421 21.25 5.5C21.25 5.08579 20.9142 4.75 20.5 4.75C20.0858 4.75 19.75 5.08579 19.75 5.5C19.75 5.91421 20.0858 6.25 20.5 6.25Z" fill="white"/>
<path d="M18.25 6.25C18.6642 6.25 19 5.91421 19 5.5C19 5.08579 18.6642 4.75 18.25 4.75C17.8358 4.75 17.5 5.08579 17.5 5.5C17.5 5.91421 17.8358 6.25 18.25 6.25Z" fill="white"/>
<path d="M16 6.25C16.4142 6.25 16.75 5.91421 16.75 5.5C16.75 5.08579 16.4142 4.75 16 4.75C15.5858 4.75 15.25 5.08579 15.25 5.5C15.25 5.91421 15.5858 6.25 16 6.25Z" fill="white"/>
<path fill-rule="evenodd" clip-rule="evenodd" d="M16 13H19.75C20.164 13 20.5 12.664 20.5 12.25C20.5 11.836 20.164 11.5 19.75 11.5H16C15.586 11.5 15.25 11.836 15.25 12.25C15.25 12.664 15.586 13 16 13ZM16 16H19.75C20.164 16 20.5 15.664 20.5 15.25C20.5 14.836 20.164 14.5 19.75 14.5H16C15.586 14.5 15.25 14.836 15.25 15.25C15.25 15.664 15.586 16 16 16ZM16 19H19.75C20.164 19 20.5 18.664 20.5 18.25C20.5 17.836 20.164 17.5 19.75 17.5H16C15.586 17.5 15.25 17.836 15.25 18.25C15.25 18.664 15.586 19 16 19Z" fill="white"/>
</svg>
