<svg width="32" height="32" viewBox="0 0 32 32" fill="none" xmlns="http://www.w3.org/2000/svg">
<path d="M29.656 2.344C28.094 0.781 26.047 0 24 0C21.953 0 19.906 0.781 18.344 2.344L0.031 20.656L0 32H11.312L29.656 13.656C30.3991 12.9134 30.9886 12.0317 31.3908 11.0612C31.7929 10.0907 31.9999 9.05052 31.9999 8C31.9999 6.94948 31.7929 5.90926 31.3908 4.93877C30.9886 3.96829 30.3991 3.08657 29.656 2.344ZM9.656 28H9.613C10.3634 27.2437 10.7845 26.2214 10.7845 25.156C10.7845 24.0906 10.3634 23.0683 9.613 22.312C8.117 20.816 5.754 20.796 4.183 22.164L21.137 5.211L26.793 10.867L9.656 28Z" fill="#D85B53"/>
</svg>
